<?xml version="1.0" standalone="no"?>
<!DOCTYPE svg PUBLIC "-//W3C//DTD SVG 20010904//EN"
 "http://www.w3.org/TR/2001/REC-SVG-20010904/DTD/svg10.dtd">
<svg version="1.0" xmlns="http://www.w3.org/2000/svg"
 width="400.000000pt" height="188.000000pt" viewBox="0 0 400.000000 188.000000"
 preserveAspectRatio="xMidYMid meet">

<g transform="translate(0.000000,188.000000) scale(0.100000,-0.100000)"
fill="#000000" stroke="none">
<path d="M525 1295 c-5 -2 -22 -6 -37 -9 -43 -10 -85 -53 -101 -104 -31 -98
-99 -481 -93 -518 10 -52 54 -76 131 -72 102 6 143 48 169 173 l14 66 -57 -3
c-47 -3 -56 -6 -59 -23 -15 -91 -45 -131 -75 -101 -12 12 -8 45 29 236 24 123
49 229 55 237 7 8 22 13 33 11 23 -3 27 -31 13 -100 l-8 -38 55 0 54 0 11 50
c17 80 14 137 -8 159 -26 26 -96 46 -126 36z"/>
<path d="M827 1288 c-45 -12 -92 -56 -106 -100 -6 -18 -31 -138 -55 -265 -50
-263 -50 -290 6 -319 42 -22 138 -15 175 12 54 41 62 63 114 324 55 274 55
298 9 331 -32 23 -95 30 -143 17z m60 -115 c6 -15 -57 -372 -78 -440 -6 -17
-16 -34 -24 -37 -22 -8 -45 4 -45 22 0 47 84 445 97 458 19 19 42 18 50 -3z"/>
<path d="M2525 1291 c-102 -26 -114 -48 -168 -322 -54 -270 -57 -307 -24 -345
19 -22 34 -28 79 -32 76 -6 140 22 166 75 30 57 118 526 106 559 -18 52 -92
82 -159 65z m42 -113 c16 -20 -72 -459 -94 -475 -22 -16 -28 -16 -42 1 -15 18
69 463 90 477 20 12 35 11 46 -3z"/>
<path d="M3201 1290 c-48 -11 -83 -40 -108 -89 -23 -46 -39 -154 -29 -196 4
-15 34 -55 66 -90 64 -69 66 -76 49 -155 -12 -56 -39 -81 -65 -59 -15 12 -14
35 3 107 5 21 2 22 -50 22 -63 0 -63 0 -73 -110 -6 -61 -4 -68 18 -95 22 -25
33 -29 89 -32 115 -7 166 43 194 189 19 99 9 135 -55 196 -63 62 -73 83 -64
138 7 46 25 74 48 74 26 0 35 -24 26 -65 -17 -73 -16 -75 44 -75 l54 0 11 63
c6 35 11 75 11 89 0 36 -35 76 -78 88 -41 11 -44 11 -91 0z"/>
<path d="M1075 1258 c-11 -50 -125 -643 -125 -651 0 -5 49 -7 109 -5 176 5
185 16 247 335 48 248 49 260 33 296 -17 37 -50 47 -159 47 -95 0 -100 -1
-105 -22z m153 -110 c3 -29 -62 -379 -78 -415 -7 -17 -18 -23 -40 -23 -16 0
-30 2 -30 4 0 6 81 418 87 444 4 18 11 22 32 20 20 -2 27 -9 29 -30z"/>
<path d="M1407 1198 c-45 -237 -108 -565 -113 -580 -5 -17 6 -18 129 -18 l134
0 10 50 c6 29 6 53 1 56 -4 3 -36 5 -71 4 -34 -1 -65 -1 -68 -1 -4 1 0 31 7
69 25 124 16 112 89 112 69 0 66 -2 80 68 l7 32 -66 0 c-76 0 -73 -6 -48 110
l17 75 77 3 77 3 6 32 c4 18 9 40 11 50 5 16 -6 17 -129 17 l-135 0 -15 -82z"/>
<path d="M1721 1228 c-18 -86 -121 -618 -121 -623 0 -3 24 -5 54 -5 l54 0 28
145 c15 80 31 145 35 145 4 0 10 -63 14 -141 5 -98 11 -142 20 -145 7 -3 35
-4 62 -2 l49 3 -22 140 c-29 177 -29 167 5 187 38 21 57 59 76 148 23 107 20
146 -11 175 -25 23 -34 25 -130 25 l-103 0 -10 -52z m148 -62 c16 -19 -11
-146 -35 -163 -35 -26 -47 -17 -41 30 14 103 28 147 47 147 9 0 23 -6 29 -14z"/>
<path d="M2010 953 c-35 -181 -65 -334 -68 -340 -3 -10 11 -13 52 -13 64 0 55
-17 89 165 l22 120 38 3 c35 3 37 2 32 -20 -3 -13 -16 -78 -29 -146 l-23 -123
56 3 55 3 38 190 c20 105 49 256 65 338 l29 147 -56 0 -56 0 -18 -97 c-38
-205 -33 -193 -72 -193 -19 0 -34 3 -34 8 0 4 11 63 25 132 13 69 25 131 25
138 0 8 -17 12 -53 12 l-53 0 -64 -327z"/>
<path d="M2756 1263 c-15 -51 -106 -544 -106 -575 0 -82 93 -122 195 -84 75
29 82 46 146 370 32 160 58 294 59 299 0 4 -24 7 -54 7 -61 0 -58 5 -76 -100
-48 -273 -91 -466 -107 -477 -22 -17 -28 -16 -43 1 -9 12 -1 70 39 278 28 145
53 271 55 281 4 14 -4 17 -49 17 -42 0 -55 -4 -59 -17z"/>
<path d="M3380 958 c-34 -178 -64 -331 -67 -340 -4 -17 7 -18 129 -18 l134 0
10 50 c6 28 7 53 2 56 -4 3 -36 5 -71 4 -34 -1 -65 -1 -68 -1 -3 1 2 40 11 89
l16 87 67 3 c62 3 67 5 72 27 3 14 7 36 10 50 5 25 5 25 -61 25 l-66 0 6 30
c3 17 11 59 18 95 l11 65 78 0 77 0 7 33 c4 17 9 40 11 50 5 16 -6 17 -129 17
l-134 0 -63 -322z"/>
</g>
</svg>
