<?xml version="1.0" standalone="no"?>
<!DOCTYPE svg PUBLIC "-//W3C//DTD SVG 20010904//EN"
 "http://www.w3.org/TR/2001/REC-SVG-20010904/DTD/svg10.dtd">
<svg version="1.0" xmlns="http://www.w3.org/2000/svg"
 width="890.000000pt" height="890.000000pt" viewBox="0 0 890.000000 890.000000"
 preserveAspectRatio="xMidYMid meet">

<g transform="translate(0.000000,890.000000) scale(0.100000,-0.100000)"
fill="#000000" stroke="none">
<path d="M4310 6879 c-25 -5 -72 -13 -105 -19 -300 -54 -617 -285 -794 -579
-126 -208 -183 -470 -161 -731 14 -173 43 -279 120 -435 153 -313 459 -563
795 -650 211 -54 509 -43 710 27 279 97 547 326 689 588 96 179 138 351 138
575 0 177 -23 308 -79 450 -131 333 -422 612 -758 723 -57 19 -94 28 -229 52
-70 12 -262 12 -326 -1z"/>
<path d="M3215 4618 c-230 -25 -446 -137 -586 -302 -217 -256 -339 -604 -399
-1146 -13 -115 -16 -407 -5 -509 15 -156 76 -303 172 -418 141 -169 315 -251
595 -282 63 -7 569 -11 1485 -11 1651 0 1621 -2 1840 106 83 40 110 61 188
138 122 123 180 235 216 418 13 70 13 436 -1 562 -48 445 -144 767 -299 1006
-109 168 -219 270 -378 349 -99 49 -197 77 -318 91 -84 9 -92 8 -140 -14 -27
-12 -104 -58 -170 -101 -180 -116 -187 -121 -244 -149 -100 -51 -227 -98 -361
-133 -132 -35 -139 -36 -330 -36 -187 -1 -200 1 -320 31 -242 61 -372 120
-610 276 -130 86 -224 137 -245 135 -5 -1 -46 -6 -90 -11z"/>
<path d="M7372 2630 c0 -14 2 -19 5 -12 2 6 2 18 0 25 -3 6 -5 1 -5 -13z"/>
</g>
</svg>
