<?xml version="1.0" standalone="no"?>
<!DOCTYPE svg PUBLIC "-//W3C//DTD SVG 20010904//EN"
 "http://www.w3.org/TR/2001/REC-SVG-20010904/DTD/svg10.dtd">
<svg version="1.0" xmlns="http://www.w3.org/2000/svg"
 width="626.000000pt" height="626.000000pt" viewBox="0 0 626.000000 626.000000"
 preserveAspectRatio="xMidYMid meet">

<g transform="translate(0.000000,626.000000) scale(0.100000,-0.100000)"
fill="#000000" stroke="none">
<path d="M4071 4894 c-75 -20 -132 -53 -240 -139 -161 -129 -242 -176 -401
-232 l-95 -33 100 5 c164 8 262 42 424 147 52 34 125 74 163 90 181 76 396 47
497 -69 48 -54 87 -148 70 -169 -14 -18 -40 -104 -31 -104 5 0 25 18 46 39
140 143 403 109 491 -63 26 -51 30 -70 29 -137 0 -66 -5 -87 -32 -142 -39 -80
-107 -148 -181 -185 -50 -24 -67 -27 -156 -27 -90 1 -107 4 -177 34 -43 18
-78 36 -78 40 0 4 12 18 26 32 29 26 74 113 74 143 0 13 -13 4 -45 -32 -75
-83 -184 -127 -262 -106 -21 6 -21 7 13 50 42 56 64 129 64 213 0 82 -15 111
-24 49 -15 -100 -85 -208 -164 -251 -43 -24 -142 -48 -142 -35 0 2 8 22 19 44
17 36 39 144 29 144 -3 0 -21 -24 -41 -53 -72 -104 -181 -167 -302 -175 -144
-9 -254 35 -359 142 -49 50 -67 63 -61 46 26 -85 101 -182 167 -216 l32 -17
-34 -29 c-19 -17 -59 -42 -89 -55 -99 -47 -217 -19 -307 73 -141 145 -152 396
-22 526 52 52 121 84 256 119 148 38 215 63 272 99 41 26 111 90 99 90 -3 0
-30 -12 -60 -26 -90 -44 -158 -64 -308 -90 -153 -26 -215 -47 -298 -101 -195
-128 -243 -407 -105 -619 22 -32 52 -71 68 -86 83 -76 218 -128 337 -128 45 0
65 6 113 35 265 160 776 214 976 104 70 -39 84 -70 91 -200 4 -62 5 -114 4
-115 -2 -2 -36 8 -77 22 -40 13 -114 31 -164 39 -94 15 -304 19 -391 6 l-50
-7 60 -7 c279 -34 514 -117 675 -239 l52 -39 -7 238 c-4 131 -8 243 -9 248 0
6 6 8 14 6 41 -11 193 -12 241 -2 134 29 254 123 316 249 38 75 38 77 38 196
0 111 -2 125 -27 176 -37 76 -99 137 -175 172 -59 28 -71 30 -151 26 -64 -3
-98 -10 -130 -27 -24 -12 -46 -20 -49 -18 -2 3 -10 28 -18 56 -36 137 -143
235 -302 276 -72 19 -221 18 -292 -1z"/>
<path d="M2334 4640 c-28 -11 -60 -52 -76 -98 -19 -55 -16 -243 6 -322 21 -76
66 -169 107 -222 45 -56 92 -81 168 -87 l65 -6 60 -175 c33 -96 61 -177 62
-179 2 -2 10 2 18 8 8 7 26 15 40 19 l25 7 -78 170 -78 170 38 39 c75 74 84
184 29 337 -33 91 -94 184 -166 255 -81 80 -158 109 -220 84z"/>
<path d="M1970 4486 c0 -8 52 -145 115 -303 63 -158 113 -294 110 -301 -16
-43 -42 6 -155 288 -79 198 -123 296 -134 298 -9 2 -16 -3 -16 -12 0 -8 52
-145 115 -303 63 -158 115 -293 115 -299 0 -17 -27 -25 -38 -11 -5 7 -59 138
-121 292 -61 154 -116 287 -121 295 -7 12 -12 12 -21 3 -10 -10 12 -75 105
-308 65 -162 116 -302 112 -310 -7 -18 -20 -19 -33 -2 -9 11 -158 379 -205
507 -12 30 -25 61 -31 68 -12 15 -37 16 -37 0 0 -6 57 -164 127 -350 81 -215
135 -348 150 -362 13 -13 50 -31 83 -40 35 -10 66 -26 77 -40 10 -12 38 -85
63 -160 35 -109 49 -140 67 -147 11 -4 24 -13 28 -18 10 -16 23 -13 35 8 8 16
-3 46 -56 158 -91 190 -89 179 -48 260 19 37 34 80 34 94 0 23 -68 192 -239
594 -30 71 -53 111 -64 113 -10 2 -17 -3 -17 -12z"/>
<path d="M1797 3698 c-85 -128 -84 -127 -51 -153 l29 -23 19 31 c11 18 37 59
59 91 37 56 39 61 28 98 -7 21 -16 38 -20 38 -5 0 -33 -37 -64 -82z"/>
<path d="M1900 3637 c-71 -112 -90 -150 -85 -168 9 -29 17 -24 47 29 15 26 38
65 52 87 20 33 22 43 12 57 -11 15 -13 15 -26 -5z"/>
<path d="M3458 3516 c-87 -34 -118 -74 -118 -153 0 -85 58 -148 172 -186 110
-36 399 -24 385 16 -2 8 -50 14 -143 17 -124 5 -144 8 -184 30 -82 46 -84 101
-4 128 59 21 232 9 414 -27 184 -37 273 -46 364 -36 37 4 66 8 64 10 -2 2 -45
10 -97 19 -55 10 -203 53 -350 103 -248 84 -259 86 -361 90 -73 2 -116 -1
-142 -11z"/>
<path d="M1539 3487 c-208 -58 -390 -344 -476 -747 -25 -120 -25 -401 0 -481
26 -82 68 -143 121 -174 42 -24 54 -27 124 -24 l77 4 -22 -44 c-27 -52 -29
-78 -7 -109 20 -29 48 -28 132 8 495 211 1269 360 2172 420 156 10 621 30 717
30 l52 0 -6 -52 c-4 -45 -2 -57 18 -82 41 -52 121 -71 178 -42 35 19 97 87
118 131 l17 35 73 0 c59 0 75 3 80 16 10 27 -12 49 -55 55 -23 3 -44 7 -46 10
-2 2 13 45 34 94 21 50 50 124 66 165 29 79 64 120 211 250 44 39 64 64 68 88
12 59 -17 51 -115 -32 -50 -42 -90 -71 -90 -64 0 7 9 58 19 113 31 167 33 190
12 209 -9 9 -32 19 -49 22 -28 6 -37 2 -65 -28 -30 -32 -34 -34 -62 -22 -41
18 -110 17 -144 -1 -16 -8 -44 -32 -63 -54 -42 -50 -131 -226 -153 -306 -10
-33 -27 -76 -38 -95 -31 -50 -88 -111 -98 -104 -18 11 -8 92 27 235 21 81 34
154 31 162 -10 26 -55 50 -97 51 -34 1 -46 -6 -86 -44 -25 -25 -71 -83 -101
-130 -86 -130 -86 -130 -9 59 14 36 26 68 26 73 0 15 -64 48 -92 48 -36 0 -49
-21 -93 -155 -63 -188 -170 -371 -205 -350 -20 13 -4 114 40 247 44 136 43
143 -22 157 -70 16 -87 -7 -129 -177 -28 -116 -38 -105 -47 56 l-7 117 -35 17
c-19 10 -52 18 -72 18 -37 0 -38 -1 -79 -81 -22 -45 -42 -79 -44 -77 -3 2 12
55 33 117 l37 113 -24 19 c-13 10 -38 19 -56 19 -30 0 -34 -4 -55 -52 -13 -29
-43 -115 -67 -190 -34 -104 -58 -159 -101 -227 -67 -107 -151 -205 -195 -227
-30 -16 -32 -16 -49 6 -20 25 -23 67 -7 138 l10 49 43 -4 c29 -4 55 0 79 12
69 32 139 172 141 282 1 52 -3 65 -24 88 -48 53 -124 69 -180 40 -99 -51 -230
-345 -230 -516 0 -75 11 -113 42 -146 l20 -21 -55 -7 c-31 -4 -60 -4 -66 -1
-32 20 -41 196 -16 318 20 97 67 239 122 368 68 160 61 153 152 148 42 -2 91
-12 109 -21 40 -19 48 -8 38 49 -9 44 -54 74 -113 74 -47 0 -49 3 -28 40 8 14
14 34 15 46 0 40 -72 84 -117 70 -11 -3 -40 -41 -66 -84 l-47 -77 -67 -13
c-38 -7 -91 -24 -120 -37 -78 -35 -91 -76 -38 -125 l24 -22 28 20 c31 21 100
48 107 41 11 -11 -98 -299 -162 -429 -81 -164 -132 -240 -162 -240 -17 0 -20
7 -20 43 0 53 39 199 79 296 17 41 31 80 31 87 0 23 -51 54 -90 54 -35 0 -41
-4 -70 -51 -24 -39 -35 -49 -48 -44 -99 42 -115 46 -148 35 -51 -17 -99 -81
-166 -220 -116 -240 -278 -438 -409 -500 -74 -35 -112 -37 -155 -11 -95 58
-109 265 -37 560 71 297 182 519 283 569 74 36 105 1 102 -119 -2 -119 -55
-344 -110 -473 -19 -43 -23 -62 -15 -75 17 -27 55 -41 111 -41 52 0 53 1 68
37 27 63 61 234 74 366 10 98 10 148 1 219 -25 196 -104 273 -242 235z m3277
-342 c16 -41 -160 -325 -202 -325 -32 0 70 218 139 296 41 47 54 53 63 29z
m-1800 -221 c-11 -83 -68 -184 -103 -184 -7 0 -13 6 -13 13 0 30 102 217 118
217 3 0 2 -21 -2 -46z m1810 -1 c-3 -10 -12 -44 -21 -77 -15 -51 -30 -72 -125
-175 -60 -64 -127 -140 -150 -168 l-42 -53 -371 0 c-205 0 -480 -5 -612 -10
-131 -5 -241 -7 -244 -4 -9 9 30 150 63 227 38 85 107 207 119 207 4 0 7 -12
7 -27 0 -89 31 -123 111 -123 l39 0 -6 -73 c-8 -86 2 -112 51 -133 73 -30 124
-11 176 65 19 28 37 51 40 51 4 0 2 -23 -3 -51 -12 -65 1 -80 71 -87 l51 -5
22 54 c42 105 158 324 188 359 l31 35 -5 -30 c-18 -100 -28 -217 -22 -249 10
-51 52 -76 127 -76 61 0 83 14 140 88 l25 33 37 -16 c20 -8 47 -15 59 -15 30
0 129 104 188 198 43 68 67 91 56 55z m-2692 -109 c7 -28 -17 -76 -117 -231
-91 -143 -107 -115 -36 64 68 173 134 244 153 167z m8 -290 c-3 -49 0 -84 8
-100 16 -28 67 -54 109 -54 43 0 110 64 164 154 l42 71 6 -72 c4 -39 12 -87
19 -108 7 -20 10 -38 8 -39 -1 -1 -59 -8 -128 -15 -230 -24 -518 -76 -657
-119 -66 -21 -77 -17 -42 14 12 10 42 47 67 82 43 58 47 62 56 42 13 -29 77
-60 124 -60 49 0 69 21 157 168 38 61 69 112 69 112 1 0 0 -34 -2 -76z m982
-38 l-7 -66 -53 0 -54 0 57 70 c31 38 58 68 60 66 2 -2 1 -33 -3 -70z m1553
19 c-15 -37 -28 -55 -39 -55 -10 0 -18 3 -18 8 1 8 68 102 74 102 2 0 -6 -25
-17 -55z m-67 -141 c0 -12 -42 -64 -51 -64 -12 0 -12 27 1 51 10 17 50 28 50
13z"/>
<path d="M2135 3213 c-98 -40 -244 -165 -231 -198 7 -19 13 -18 103 19 34 15
106 33 160 41 83 12 101 18 121 40 29 34 28 60 -3 90 -29 30 -88 33 -150 8z"/>
<path d="M4991 2409 c-16 -6 -21 -15 -19 -31 2 -19 10 -24 44 -26 31 -2 43 1
48 14 13 33 -31 58 -73 43z"/>
<path d="M3516 2186 c-5 -20 -15 -28 -38 -33 l-31 -6 27 -20 c23 -16 26 -24
20 -51 -6 -30 -6 -31 13 -13 23 20 54 22 72 5 11 -11 12 -7 6 20 -5 25 -2 38
11 53 16 18 16 19 -9 19 -16 0 -32 10 -45 27 l-19 26 -7 -27z"/>
<path d="M4303 2127 c-197 -347 -544 -598 -943 -684 -121 -26 -430 -25 -550 1
-106 23 -263 77 -350 121 -169 85 -359 239 -465 379 -27 35 -52 65 -55 65 -3
1 -11 -3 -19 -8 -20 -13 46 -99 159 -211 199 -196 441 -324 730 -386 133 -29
430 -27 569 4 341 77 625 251 834 512 89 112 160 233 152 259 -3 12 -9 21 -13
21 -4 0 -26 -33 -49 -73z"/>
<path d="M3886 2146 c-40 -49 -43 -56 -22 -56 8 0 40 -25 73 -56 l58 -55 38
42 c20 23 37 47 37 54 0 18 -111 115 -131 115 -9 0 -33 -20 -53 -44z m135 -99
c-9 -9 -23 1 -105 74 -4 4 -5 12 -1 18 4 7 27 -6 61 -35 37 -32 52 -50 45 -57z"/>
<path d="M2795 2112 c-5 -24 -12 -32 -29 -32 -33 0 -39 -11 -16 -27 12 -9 20
-26 20 -44 0 -29 0 -29 24 -14 20 13 29 14 46 5 27 -14 35 -8 21 18 -8 16 -6
25 10 46 l20 26 -30 0 c-23 0 -34 7 -44 27 l-15 27 -7 -32z"/>
<path d="M3163 2100 c-7 -27 -16 -35 -47 -44 l-38 -11 32 -18 c27 -17 30 -22
24 -53 -7 -39 -3 -41 32 -18 20 14 29 15 51 5 32 -15 38 -9 25 26 -8 24 -6 32
16 56 l26 27 -36 0 c-30 0 -40 6 -56 32 l-20 32 -9 -34z"/>
<path d="M4400 2122 c0 -18 -140 -219 -193 -279 -231 -259 -522 -424 -862
-490 -124 -24 -396 -23 -520 1 -362 71 -685 265 -905 546 -57 72 -67 80 -90
75 -46 -12 -45 -22 15 -102 215 -289 552 -500 932 -585 83 -19 129 -22 308
-22 180 0 225 3 311 22 447 97 798 347 1034 736 l42 69 -23 18 c-25 20 -49 25
-49 11z"/>
<path d="M3771 2031 c-17 -16 -31 -34 -31 -41 0 -20 101 -130 119 -130 9 0 32
16 51 35 39 40 38 43 -29 122 -43 50 -68 54 -110 14z m88 -62 c34 -39 41 -53
31 -62 -9 -9 -22 -1 -56 38 -24 27 -44 55 -44 62 0 26 26 12 69 -38z"/>
<path d="M2308 1986 c-53 -60 -57 -75 -29 -100 11 -10 17 -24 14 -32 -3 -8 0
-21 7 -29 14 -17 40 -20 40 -5 0 6 -7 10 -15 10 -8 0 -15 5 -15 10 0 6 10 8
23 5 18 -5 31 4 68 47 25 29 49 59 53 66 11 18 -51 82 -78 82 -13 0 -40 -22
-68 -54z m102 3 c0 -5 -14 -28 -32 -49 -24 -31 -34 -37 -44 -29 -11 9 -7 19
18 50 30 37 58 51 58 28z m-90 -89 c0 -5 -4 -10 -10 -10 -5 0 -10 5 -10 10 0
6 5 10 10 10 6 0 10 -4 10 -10z"/>
<path d="M2473 1948 c2 -7 -11 -40 -29 -74 -19 -33 -34 -68 -34 -78 0 -19 56
-56 85 -56 14 0 29 16 49 51 16 29 38 61 49 72 19 19 19 20 2 34 -26 19 -32
17 -38 -14 -3 -16 -20 -50 -37 -77 -29 -46 -32 -48 -48 -32 -16 16 -15 20 13
72 17 31 36 59 43 61 20 8 14 22 -18 38 -35 18 -43 19 -37 3z"/>
<path d="M3649 1937 c-19 -12 -35 -30 -37 -39 -3 -15 61 -126 81 -139 15 -10
62 9 87 36 l22 24 -43 70 c-25 41 -51 71 -60 71 -9 0 -31 -10 -50 -23z m70
-72 c25 -42 31 -59 23 -67 -7 -7 -13 -10 -15 -7 -25 28 -75 114 -71 121 12 19
32 4 63 -47z"/>
<path d="M3513 1864 c-46 -21 -70 -44 -45 -44 11 0 62 -118 62 -142 0 -15 4
-16 28 -6 42 18 45 25 23 47 -12 12 -21 29 -21 38 0 13 3 14 12 5 23 -23 28
-12 11 23 -16 34 -38 50 -27 20 10 -25 -12 -17 -24 10 -10 21 -9 26 10 36 17
9 24 8 34 -5 15 -21 25 -8 17 22 -7 27 -14 27 -80 -4z"/>
<path d="M2620 1790 c-25 -38 -51 -70 -57 -70 -20 0 -15 -18 8 -30 21 -12 34
-7 34 13 0 7 10 13 23 15 24 4 30 -16 10 -36 -9 -9 -3 -15 23 -26 42 -18 49
-14 43 27 -3 17 -1 61 4 95 9 62 8 64 -15 73 -13 5 -25 9 -26 9 -1 0 -22 -32
-47 -70z m45 -19 c-4 -17 -13 -31 -21 -31 -18 0 -18 4 2 41 19 37 28 32 19
-10z"/>
<path d="M2783 1796 c8 -21 -10 -114 -29 -143 -16 -25 -13 -28 39 -37 21 -4
44 -9 51 -12 8 -3 16 5 20 22 9 34 0 43 -18 18 -11 -14 -18 -16 -26 -8 -14 14
11 132 31 145 19 11 8 19 -36 26 -33 5 -37 4 -32 -11z"/>
<path d="M3290 1790 c-12 -8 -12 -12 -2 -18 14 -10 7 -62 -9 -62 -12 0 -28 33
-26 55 1 13 -3 19 -13 16 -8 -2 -59 -6 -112 -9 l-98 -5 0 -28 c0 -16 5 -29 10
-29 6 0 10 9 10 20 0 11 4 20 9 20 11 0 19 -140 9 -147 -20 -12 -4 -23 32 -23
29 0 40 4 40 15 0 8 -4 15 -10 15 -6 0 -10 30 -10 70 0 68 12 92 23 49 7 -26
27 -16 27 14 1 20 4 19 31 -13 40 -45 60 -91 52 -120 -5 -19 -3 -22 11 -17 10
4 26 7 37 7 10 0 19 7 19 15 0 8 -5 15 -11 15 -15 0 -5 91 15 130 19 38 2 53
-34 30z"/>
<path d="M2933 1703 c-1 -44 -6 -79 -12 -81 -6 -2 -11 -10 -11 -18 0 -9 12
-14 36 -14 25 0 35 4 31 13 -7 19 14 141 25 148 19 12 -2 29 -35 29 l-32 0 -2
-77z"/>
</g>
</svg>
